<svg width="650" height="220" viewBox="0 0 650 220" fill="none" xmlns="http://www.w3.org/2000/svg">
<path fill-rule="evenodd" clip-rule="evenodd" d="M118.846 85.7271L117.974 73.1872H131.553L134.293 63.7512L141.643 61.7647L147 45.5C122.161 52.6865 105.842 54.5451 73.5 54.936V98.7637H105.516L107.634 160.594H100.533V174.5H131.054V160.346H123.953L119.842 98.7637L134.542 98.8879V85.7271H118.846ZM104.644 85.7271L104.27 73.1872L78.3585 73.5597L78.2339 85.7271H104.644Z" fill="white"/>
<path fill-rule="evenodd" clip-rule="evenodd" d="M28.1542 85.7271L29.0263 73.1872H15.4475L12.7068 63.7512L5.35678 61.7647L0 45.5C24.8394 52.6865 41.1578 54.5451 73.5 54.936V98.7637H41.4839L39.3661 160.594H46.4669V174.5H15.9458V160.346H23.0466L27.1576 98.7637L12.4576 98.8879V85.7271H28.1542ZM42.3559 85.7271L42.7297 73.1872L68.6415 73.5597L68.7661 85.7271H42.3559Z" fill="white"/>
<path d="M164.917 171V73.476H161.649L164.057 50.6H188.309V82.076L203.101 50.6H225.461L201.897 100.824L228.557 171H206.197L188.309 123.872V171H164.917ZM232.868 171L247.144 73.476H243.532L245.94 50.6H286.016L303.732 171H280.512L277.932 153.8H258.668L256.088 171H232.868ZM261.936 130.924H274.664L268.3 87.924L261.936 130.924ZM313.905 171V73.476H310.637L313.045 50.6H337.297V171H313.905Z" fill="white"/>
<path d="M457.988 146.404C457.988 155.119 456.038 161.425 452.14 165.324C448.356 169.108 442.049 171 433.22 171H400.884V73.476H397.616L400.024 50.6H433.22C442.049 50.6 448.356 52.492 452.14 56.276C456.038 60.06 457.988 66.3667 457.988 75.196V146.404ZM433.736 148.124C434.309 148.124 434.596 147.837 434.596 147.264V74.336C434.596 73.7627 434.309 73.476 433.736 73.476H424.276V148.124H433.736ZM522.747 147.092C522.747 155.807 520.798 162.113 516.899 166.012C513.115 169.796 506.808 171.688 497.979 171.688H490.411C481.582 171.688 475.218 169.796 471.319 166.012C467.535 162.113 465.643 155.807 465.643 147.092V74.508C465.643 65.6787 467.535 59.372 471.319 55.588C475.218 51.804 481.582 49.912 490.411 49.912H497.979C506.808 49.912 513.115 51.804 516.899 55.588C520.798 59.372 522.747 65.6787 522.747 74.508V147.092ZM489.895 72.788C489.322 72.788 489.035 73.0747 489.035 73.648V147.952C489.035 148.525 489.322 148.812 489.895 148.812H498.495C499.068 148.812 499.355 148.525 499.355 147.952V73.648C499.355 73.0747 499.068 72.788 498.495 72.788H489.895ZM581.583 147.092C581.583 155.807 579.634 162.113 575.735 166.012C571.951 169.796 565.645 171.688 556.815 171.688H554.407C545.578 171.688 539.214 169.796 535.315 166.012C531.531 162.113 529.639 155.807 529.639 147.092V121.12H553.031V147.952C553.031 148.525 553.318 148.812 553.891 148.812H557.331C557.905 148.812 558.191 148.525 558.191 147.952V73.476H542.711L545.119 50.6H581.583V147.092ZM646.372 147.092C646.372 155.807 644.423 162.113 640.524 166.012C636.74 169.796 630.433 171.688 621.604 171.688H614.036C605.207 171.688 598.843 169.796 594.944 166.012C591.16 162.113 589.268 155.807 589.268 147.092V74.508C589.268 65.6787 591.16 59.372 594.944 55.588C598.843 51.804 605.207 49.912 614.036 49.912H621.604C630.433 49.912 636.74 51.804 640.524 55.588C644.423 59.372 646.372 65.6787 646.372 74.508V147.092ZM613.52 72.788C612.947 72.788 612.66 73.0747 612.66 73.648V147.952C612.66 148.525 612.947 148.812 613.52 148.812H622.12C622.693 148.812 622.98 148.525 622.98 147.952V73.648C622.98 73.0747 622.693 72.788 622.12 72.788H613.52Z" fill="white"/>
</svg>
